<svg xmlns="http://www.w3.org/2000/svg" xmlns:xlink="http://www.w3.org/1999/xlink" viewBox="0 0 734 98"><g id="graph1" class="graph" transform="scale(1 1) rotate(0) translate(4 94)"><title>G</title><polygon fill="#fff" stroke="#fff" points="-4 5 -4 -94 731 -94 731 5 -4 5"/><g id="node2" class="node"><title>f.a</title><polygon fill="none" stroke="#000" points="54 -63 0 -63 0 -27 54 -27 54 -63"/><text x="27" y="-40.8" font-family="Times,serif" font-size="14" text-anchor="middle">f.a</text></g><g id="node9" class="node"><title>preprocess</title><ellipse cx="143" cy="-45" fill="none" stroke="#000" rx="52.146" ry="18"/><text x="143" y="-40.8" font-family="Times,serif" font-size="14" text-anchor="middle">preprocess</text></g><g id="edge3" class="edge"><title>f.a-&gt;preprocess</title><path fill="none" stroke="#000" d="M54.1539,-45C62.071,-45 71.1241,-45 80.3409,-45"/><polygon fill="#000" stroke="#000" points="80.36 -48.5 90.36 -45 80.36 -41.5 80.36 -48.5"/></g><g id="node3" class="node"><title>f.b1</title><polygon fill="none" stroke="#000" points="286 -90 232 -90 232 -54 286 -54 286 -90"/><text x="259" y="-67.8" font-family="Times,serif" font-size="14" text-anchor="middle">f.b1</text></g><g id="node13" class="node"><title>findrange1</title><ellipse cx="375" cy="-72" fill="none" stroke="#000" rx="52.731" ry="18"/><text x="375" y="-67.8" font-family="Times,serif" font-size="14" text-anchor="middle">findrange1</text></g><g id="edge9" class="edge"><title>f.b1-&gt;findrange1</title><path fill="none" stroke="#000" d="M286.154,-72C293.891,-72 302.714,-72 311.713,-72"/><polygon fill="#000" stroke="#000" points="311.901 -75.5 321.901 -72 311.901 -68.5 311.901 -75.5"/></g><g id="node4" class="node"><title>f.b2</title><polygon fill="none" stroke="#000" points="286 -36 232 -36 232 0 286 0 286 -36"/><text x="259" y="-13.8" font-family="Times,serif" font-size="14" text-anchor="middle">f.b2</text></g><g id="node15" class="node"><title>findrange2</title><ellipse cx="375" cy="-18" fill="none" stroke="#000" rx="52.731" ry="18"/><text x="375" y="-13.8" font-family="Times,serif" font-size="14" text-anchor="middle">findrange2</text></g><g id="edge11" class="edge"><title>f.b2-&gt;findrange2</title><path fill="none" stroke="#000" d="M286.154,-18C293.891,-18 302.714,-18 311.713,-18"/><polygon fill="#000" stroke="#000" points="311.901 -21.5 321.901 -18 311.901 -14.5 311.901 -21.5"/></g><g id="node5" class="node"><title>f.c1</title><polygon fill="none" stroke="#000" points="518 -90 464 -90 464 -54 518 -54 518 -90"/><text x="491" y="-67.8" font-family="Times,serif" font-size="14" text-anchor="middle">f.c1</text></g><g id="node19" class="node"><title>analyze</title><ellipse cx="595" cy="-45" fill="none" stroke="#000" rx="40.548" ry="18"/><text x="595" y="-40.8" font-family="Times,serif" font-size="14" text-anchor="middle">analyze</text></g><g id="edge17" class="edge"><title>f.c1-&gt;analyze</title><path fill="none" stroke="#000" d="M518.003,-65.1169C527.673,-62.557 538.937,-59.5754 549.784,-56.7042"/><polygon fill="#000" stroke="#000" points="550.799 -60.056 559.571 -54.114 549.008 -53.289 550.799 -60.056"/></g><g id="node6" class="node"><title>f.c2</title><polygon fill="none" stroke="#000" points="518 -36 464 -36 464 0 518 0 518 -36"/><text x="491" y="-13.8" font-family="Times,serif" font-size="14" text-anchor="middle">f.c2</text></g><g id="edge19" class="edge"><title>f.c2-&gt;analyze</title><path fill="none" stroke="#000" d="M518.003,-24.8831C527.673,-27.443 538.937,-30.4246 549.784,-33.2958"/><polygon fill="#000" stroke="#000" points="549.008 -36.711 559.571 -35.886 550.799 -29.944 549.008 -36.711"/></g><g id="node7" class="node"><title>f.d</title><polygon fill="none" stroke="#000" points="726 -63 672 -63 672 -27 726 -27 726 -63"/><text x="699" y="-40.8" font-family="Times,serif" font-size="14" text-anchor="middle">f.d</text></g><g id="edge5" class="edge"><title>preprocess-&gt;f.b1</title><path fill="none" stroke="#000" d="M186.449,-55.0538C198.082,-57.8088 210.58,-60.769 221.825,-63.4323"/><polygon fill="#000" stroke="#000" points="221.201 -66.881 231.739 -65.78 222.815 -60.07 221.201 -66.881"/></g><g id="edge7" class="edge"><title>preprocess-&gt;f.b2</title><path fill="none" stroke="#000" d="M186.449,-34.9462C198.082,-32.1912 210.58,-29.231 221.825,-26.5677"/><polygon fill="#000" stroke="#000" points="222.815 -29.93 231.739 -24.22 221.201 -23.119 222.815 -29.93"/></g><g id="edge13" class="edge"><title>findrange1-&gt;f.c1</title><path fill="none" stroke="#000" d="M427.996,-72C436.749,-72 445.661,-72 453.898,-72"/><polygon fill="#000" stroke="#000" points="453.906 -75.5 463.906 -72 453.906 -68.5 453.906 -75.5"/></g><g id="edge15" class="edge"><title>findrange2-&gt;f.c2</title><path fill="none" stroke="#000" d="M427.996,-18C436.749,-18 445.661,-18 453.898,-18"/><polygon fill="#000" stroke="#000" points="453.906 -21.5 463.906 -18 453.906 -14.5 453.906 -21.5"/></g><g id="edge21" class="edge"><title>analyze-&gt;f.d</title><path fill="none" stroke="#000" d="M635.728,-45C644.223,-45 653.158,-45 661.524,-45"/><polygon fill="#000" stroke="#000" points="661.741 -48.5 671.741 -45 661.741 -41.5 661.741 -48.5"/></g></g></svg>